General
Complete name                            : h264/2.mp4
Format                                   : MPEG-4
Format profile                           : Base Media
Codec ID                                 : isom
File size                                : 69.2 KiB
Duration                                 : 976ms
Overall bit rate mode                    : Variable
Overall bit rate                         : 581 Kbps
Encoded date                             : UTC 1904-01-01 00:00:00
Tagged date                              : UTC 1904-01-01 00:00:00
Writing application                      : Lavf56.36.100

Video
ID                                       : 1
Format                                   : AVC
Format/Info                              : Advanced Video Codec
Format profile                           : Baseline@L3
Format settings, CABAC                   : No
Format settings, ReFrames                : 1 frame
Codec ID                                 : avc1
Codec ID/Info                            : Advanced Video Coding
Duration                                 : 944ms
Bit rate                                 : 482 Kbps
Width                                    : 432 pixels
Height                                   : 768 pixels
Display aspect ratio                     : 0.562
Frame rate                               : 25.424 fps
Color space                              : YUV
Chroma subsampling                       : 4:2:0
Bit depth                                : 8 bits
Scan type                                : Progressive
Bits/(Pixel*Frame)                       : 0.057
Stream size                              : 55.5 KiB (80%)
Encoded date                             : UTC 1904-01-01 00:00:00
Tagged date                              : UTC 1904-01-01 00:00:00

Audio
ID                                       : 2
Format                                   : AAC
Format/Info                              : Advanced Audio Codec
Format profile                           : LC
Codec ID                                 : 40
Duration                                 : 976ms
Bit rate mode                            : Variable
Bit rate                                 : 96.0 Kbps
Channel(s)                               : 2 channels
Channel(s)_Original                      : 1 channel
Channel positions                        : Front: C
Sampling rate                            : 44.1 KHz
Compression mode                         : Lossy
Stream size                              : 11.4 KiB (16%)
Encoded date                             : UTC 1904-01-01 00:00:00
Tagged date                              : UTC 1904-01-01 00:00:00


